<?xml version="1.0" standalone="no"?>
<!DOCTYPE svg PUBLIC "-//W3C//DTD SVG 20010904//EN"
 "http://www.w3.org/TR/2001/REC-SVG-20010904/DTD/svg10.dtd">
<svg version="1.0" xmlns="http://www.w3.org/2000/svg"
 width="512.000000pt" height="512.000000pt" viewBox="0 0 512.000000 512.000000"
 preserveAspectRatio="xMidYMid meet">
<metadata>
Created by potrace 1.11, written by Peter Selinger 2001-2013
</metadata>
<g transform="translate(0.000000,512.000000) scale(0.100000,-0.100000)"
fill="#000000" stroke="none">
<path d="M3618 4955 c-2 -2 -32 -6 -68 -9 -166 -17 -389 -104 -525 -207 -356
-268 -520 -699 -431 -1129 18 -86 47 -168 102 -296 3 -6 -517 -532 -1154
-1170 -637 -637 -1170 -1177 -1184 -1199 -31 -49 -40 -83 -43 -159 -10 -225
216 -385 429 -305 31 11 69 31 85 44 l28 24 185 -184 c102 -101 196 -186 209
-189 104 -24 127 -12 281 141 134 132 158 164 165 220 9 66 -11 95 -198 282
-98 98 -179 182 -179 186 0 11 206 215 216 215 5 0 88 -79 185 -176 184 -184
217 -206 287 -198 56 7 81 26 219 166 139 141 160 177 148 249 -8 46 -24 64
-214 253 l-170 170 584 583 584 584 48 -24 c59 -29 180 -71 248 -86 407 -86
811 51 1090 369 39 45 114 159 149 230 40 76 54 116 80 225 26 105 27 118 31
240 7 258 -69 499 -221 701 -64 84 -189 206 -266 256 -108 72 -279 146 -378
164 -14 3 -31 7 -38 9 -28 10 -276 27 -284 20z m197 -660 c198 -60 340 -236
349 -435 9 -209 -121 -406 -317 -476 -79 -29 -157 -34 -249 -17 -220 40 -382
231 -387 458 -6 268 211 488 478 484 46 -1 103 -7 126 -14z"/>
</g>
</svg>
